<?xml version="1.0" standalone="no"?>
<!DOCTYPE svg PUBLIC "-//W3C//DTD SVG 20010904//EN"
 "http://www.w3.org/TR/2001/REC-SVG-20010904/DTD/svg10.dtd">
<svg version="1.0" xmlns="http://www.w3.org/2000/svg"
 width="512.000000pt" height="512.000000pt" viewBox="0 0 512.000000 512.000000"
 preserveAspectRatio="xMidYMid meet">

<g transform="translate(0.000000,512.000000) scale(0.100000,-0.100000)"
fill="#000000" stroke="none">
<path d="M65 5111 c-11 -5 -29 -19 -40 -31 -20 -22 -20 -38 -23 -2082 -2
-1638 0 -2064 10 -2083 24 -44 763 -883 793 -900 28 -15 202 -16 2142 -13
l2113 3 27 28 28 27 0 2500 0 2500 -28 27 -27 28 -2488 2 c-1368 1 -2496 -2
-2507 -6z m1427 -812 l3 -611 33 -29 32 -29 1318 0 c1178 0 1320 2 1340 16 53
37 52 27 52 669 l0 595 320 0 320 0 0 -2350 0 -2350 -2003 0 -2002 0 -348 397
-347 398 0 1952 0 1953 640 0 640 0 2 -611z m2558 76 l0 -535 -1170 0 -1170 0
0 535 0 535 1170 0 1170 0 0 -535z"/>
<path d="M459 4661 l-29 -29 0 -356 c0 -240 4 -363 11 -380 6 -13 25 -32 43
-41 27 -14 71 -16 383 -13 l353 3 27 28 28 27 3 361 3 360 -35 35 -34 34 -362
0 -362 0 -29 -29z m611 -396 l0 -215 -215 0 -215 0 0 215 0 215 215 0 215 0 0
-215z"/>
<path d="M2604 3072 c-12 -9 -27 -27 -33 -39 -8 -15 -11 -271 -11 -892 0 -479
-2 -871 -4 -871 -3 0 -186 119 -408 265 -428 281 -433 284 -497 250 -55 -28
-66 -119 -18 -162 12 -11 166 -115 342 -230 176 -116 396 -260 489 -322 127
-83 178 -111 201 -111 34 0 80 29 736 462 163 107 303 206 312 219 47 66 -2
159 -83 159 -38 0 -80 -25 -445 -265 -221 -146 -405 -265 -409 -265 -3 0 -6
396 -6 881 l0 881 -29 29 c-24 23 -38 29 -73 29 -26 0 -52 -7 -64 -18z"/>
</g>
</svg>
